<svg xmlns="http://www.w3.org/2000/svg" viewBox="0 0 256 256" role="img" aria-label="Chatika logo">
  <defs>
    <linearGradient id="g1" x1="0" x2="1" y1="0" y2="1">
      <stop offset="0" stop-color="#00F0FF"/>
      <stop offset="1" stop-color="#FF7A59"/>
    </linearGradient>
    <linearGradient id="g2" x1="1" x2="0" y1="0" y2="1">
      <stop offset="0" stop-color="#6DFFB0"/>
      <stop offset="1" stop-color="#00A8FF"/>
    </linearGradient>
  </defs>
  <rect width="256" height="256" rx="64" fill="#0A1221"/>
  <path d="M56 84c0-17 14-31 31-31h82c17 0 31 14 31 31v46c0 17-14 31-31 31h-52l-37 28c-8 6-19 0-19-10v-18c-3-6-5-12-5-19V84z" fill="url(#g1)"/>
  <circle cx="98" cy="108" r="12" fill="#08111f"/>
  <circle cx="129" cy="108" r="12" fill="#08111f"/>
  <circle cx="160" cy="108" r="12" fill="#08111f"/>
  <path d="M160 145l30 28" stroke="url(#g2)" stroke-width="14" stroke-linecap="round"/>
</svg>
